<svg xmlns="http://www.w3.org/2000/svg" viewBox="0 0 150 150">
  <!-- 宋之南 - 优雅艺术型 -->
  <defs>
    <linearGradient id="bg3" x1="0%" y1="0%" x2="100%" y2="100%">
      <stop offset="0%" style="stop-color:#f3e5f5;stop-opacity:1" />
      <stop offset="100%" style="stop-color:#e1bee7;stop-opacity:1" />
    </linearGradient>
  </defs>
  
  <!-- 背景 -->
  <circle cx="75" cy="75" r="75" fill="url(#bg3)"/>
  
  <!-- 脸部轮廓 -->
  <ellipse cx="75" cy="85" rx="33" ry="39" fill="#fdbcb4"/>
  
  <!-- 头发 - 中长发 -->
  <path d="M42,70 Q75,20 108,70 Q105,35 75,25 Q45,35 42,70" fill="#3e2723"/>
  <path d="M45,75 Q50,70 55,75" fill="#3e2723"/>
  <path d="M95,75 Q100,70 105,75" fill="#3e2723"/>
  
  <!-- 眼睛 - 深邃的眼神 -->
  <ellipse cx="65" cy="76" rx="5" ry="4" fill="#2c3e50"/>
  <ellipse cx="85" cy="76" rx="5" ry="4" fill="#2c3e50"/>
  <circle cx="66" cy="75" r="1.5" fill="white"/>
  <circle cx="86" cy="75" r="1.5" fill="white"/>
  
  <!-- 眉毛 -->
  <path d="M58,69 Q65,67 72,69" fill="none" stroke="#3e2723" stroke-width="2" stroke-linecap="round"/>
  <path d="M78,69 Q85,67 92,69" fill="none" stroke="#3e2723" stroke-width="2" stroke-linecap="round"/>
  
  <!-- 嘴巴 - 淡淡微笑 -->
  <path d="M70,94 Q75,97 80,94" fill="none" stroke="#d32f2f" stroke-width="2" stroke-linecap="round"/>
  
  <!-- 调色板装饰 -->
  <ellipse cx="115" cy="120" rx="8" ry="10" fill="#795548"/>
  <circle cx="110" cy="115" r="2" fill="#f44336"/>
  <circle cx="115" cy="113" r="2" fill="#2196f3"/>
  <circle cx="120" cy="115" r="2" fill="#4caf50"/>
  <circle cx="115" cy="125" r="2" fill="#ff9800"/>
</svg>
