<svg xmlns="http://www.w3.org/2000/svg" viewBox="0 0 150 150">
  <!-- 唐言 - 阳光开朗型 -->
  <defs>
    <linearGradient id="bg7" x1="0%" y1="0%" x2="100%" y2="100%">
      <stop offset="0%" style="stop-color:#fff8e1;stop-opacity:1" />
      <stop offset="100%" style="stop-color:#ffecb3;stop-opacity:1" />
    </linearGradient>
  </defs>
  
  <!-- 背景 -->
  <circle cx="75" cy="75" r="75" fill="url(#bg7)"/>
  
  <!-- 脸部轮廓 -->
  <ellipse cx="75" cy="85" rx="33" ry="38" fill="#fdbcb4"/>
  
  <!-- 头发 - 蓬松卷发 -->
  <path d="M42,70 Q75,22 108,70 Q105,35 75,25 Q45,35 42,70" fill="#bf360c"/>
  <circle cx="55" cy="55" r="5" fill="#d84315" opacity="0.7"/>
  <circle cx="95" cy="55" r="5" fill="#d84315" opacity="0.7"/>
  <circle cx="65" cy="45" r="4" fill="#d84315" opacity="0.7"/>
  <circle cx="85" cy="45" r="4" fill="#d84315" opacity="0.7"/>
  
  <!-- 眼睛 - 明亮笑眼 -->
  <path d="M58,75 Q65,78 72,75" fill="none" stroke="#2c3e50" stroke-width="3" stroke-linecap="round"/>
  <path d="M78,75 Q85,78 92,75" fill="none" stroke="#2c3e50" stroke-width="3" stroke-linecap="round"/>
  
  <!-- 眉毛 -->
  <path d="M60,68 Q65,66 70,68" fill="none" stroke="#bf360c" stroke-width="2" stroke-linecap="round"/>
  <path d="M80,68 Q85,66 90,68" fill="none" stroke="#bf360c" stroke-width="2" stroke-linecap="round"/>
  
  <!-- 嘴巴 - 灿烂笑容 -->
  <path d="M65,94 Q75,102 85,94" fill="none" stroke="#d32f2f" stroke-width="3" stroke-linecap="round"/>
  
  <!-- 阳光装饰 -->
  <circle cx="120" cy="30" r="8" fill="#ffc107"/>
  <path d="M120,15 L120,20 M135,30 L130,30 M130,15 L127,18 M127,42 L130,42 M113,15 L116,18 M113,42 L116,42 M105,30 L110,30 M120,45 L120,40" stroke="#ff8f00" stroke-width="2" stroke-linecap="round"/>
</svg>
