<svg xmlns="http://www.w3.org/2000/svg" viewBox="0 0 150 150">
  <!-- 林舟 - 活力运动型 -->
  <defs>
    <linearGradient id="bg2" x1="0%" y1="0%" x2="100%" y2="100%">
      <stop offset="0%" style="stop-color:#fff3e0;stop-opacity:1" />
      <stop offset="100%" style="stop-color:#ffcc02;stop-opacity:1" />
    </linearGradient>
  </defs>
  
  <!-- 背景 -->
  <circle cx="75" cy="75" r="75" fill="url(#bg2)"/>
  
  <!-- 脸部轮廓 -->
  <ellipse cx="75" cy="85" rx="32" ry="38" fill="#fdbcb4"/>
  
  <!-- 头发 - 短发造型 -->
  <path d="M43,65 Q75,25 107,65 Q100,40 75,30 Q50,40 43,65" fill="#8d4e00"/>
  <path d="M50,50 Q60,45 70,50" fill="#8d4e00"/>
  
  <!-- 眼睛 -->
  <ellipse cx="65" cy="75" rx="4" ry="3" fill="#2c3e50"/>
  <ellipse cx="85" cy="75" rx="4" ry="3" fill="#2c3e50"/>
  <circle cx="66" cy="74" r="1" fill="white"/>
  <circle cx="86" cy="74" r="1" fill="white"/>
  
  <!-- 眉毛 -->
  <path d="M60,68 Q65,66 70,68" fill="none" stroke="#6d4c41" stroke-width="2" stroke-linecap="round"/>
  <path d="M80,68 Q85,66 90,68" fill="none" stroke="#6d4c41" stroke-width="2" stroke-linecap="round"/>
  
  <!-- 嘴巴 - 微笑 -->
  <path d="M68,95 Q75,100 82,95" fill="none" stroke="#d32f2f" stroke-width="2" stroke-linecap="round"/>
  
  <!-- 篮球装饰 -->
  <circle cx="115" cy="125" r="12" fill="#ff9800"/>
  <path d="M103,125 Q115,115 127,125" fill="none" stroke="#bf360c" stroke-width="2"/>
  <path d="M115,113 Q115,125 115,137" fill="none" stroke="#bf360c" stroke-width="2"/>
</svg>
