<svg xmlns="http://www.w3.org/2000/svg" viewBox="0 0 150 150">
  <!-- 萧然 - 温柔治愈型 -->
  <defs>
    <linearGradient id="bg8" x1="0%" y1="0%" x2="100%" y2="100%">
      <stop offset="0%" style="stop-color:#f1f8e9;stop-opacity:1" />
      <stop offset="100%" style="stop-color:#dcedc8;stop-opacity:1" />
    </linearGradient>
  </defs>
  
  <!-- 背景 -->
  <circle cx="75" cy="75" r="75" fill="url(#bg8)"/>
  
  <!-- 脸部轮廓 -->
  <ellipse cx="75" cy="85" rx="32" ry="37" fill="#fdbcb4"/>
  
  <!-- 头发 - 柔软发型 -->
  <path d="M43,68 Q75,28 107,68 Q103,42 75,32 Q47,42 43,68" fill="#6d4c41"/>
  <path d="M50,60 Q60,52 70,60" fill="#6d4c41"/>
  <path d="M80,60 Q90,52 100,60" fill="#6d4c41"/>
  
  <!-- 眼睛 - 温柔眼神 -->
  <ellipse cx="65" cy="75" rx="4" ry="3" fill="#2c3e50"/>
  <ellipse cx="85" cy="75" rx="4" ry="3" fill="#2c3e50"/>
  <circle cx="66" cy="74" r="1" fill="white"/>
  <circle cx="86" cy="74" r="1" fill="white"/>
  <path d="M60,72 Q65,70 70,72" fill="none" stroke="#2c3e50" stroke-width="1" stroke-linecap="round"/>
  <path d="M80,72 Q85,70 90,72" fill="none" stroke="#2c3e50" stroke-width="1" stroke-linecap="round"/>
  
  <!-- 眉毛 -->
  <path d="M60,69 Q65,67 70,69" fill="none" stroke="#6d4c41" stroke-width="2" stroke-linecap="round"/>
  <path d="M80,69 Q85,67 90,69" fill="none" stroke="#6d4c41" stroke-width="2" stroke-linecap="round"/>
  
  <!-- 嘴巴 - 温和微笑 -->
  <path d="M69,94 Q75,97 81,94" fill="none" stroke="#d32f2f" stroke-width="2" stroke-linecap="round"/>
  
  <!-- 花朵装饰 -->
  <circle cx="115" cy="125" r="3" fill="#e91e63"/>
  <circle cx="110" cy="120" r="2" fill="#f8bbd9"/>
  <circle cx="120" cy="120" r="2" fill="#f8bbd9"/>
  <circle cx="110" cy="130" r="2" fill="#f8bbd9"/>
  <circle cx="120" cy="130" r="2" fill="#f8bbd9"/>
  <path d="M115,135 Q115,140 118,145" stroke="#4caf50" stroke-width="2" stroke-linecap="round"/>
  
  <!-- 音符装饰 -->
  <circle cx="25" cy="120" r="2" fill="#424242"/>
  <path d="M27,120 L27,110" stroke="#424242" stroke-width="2"/>
  <path d="M27,110 Q32,108 32,112" fill="none" stroke="#424242" stroke-width="2"/>
</svg>
