<svg xmlns="http://www.w3.org/2000/svg" viewBox="0 0 150 150">
  <!-- 苏云深 - 成熟稳重型 -->
  <defs>
    <linearGradient id="bg6" x1="0%" y1="0%" x2="100%" y2="100%">
      <stop offset="0%" style="stop-color:#fafafa;stop-opacity:1" />
      <stop offset="100%" style="stop-color:#e0e0e0;stop-opacity:1" />
    </linearGradient>
  </defs>
  
  <!-- 背景 -->
  <circle cx="75" cy="75" r="75" fill="url(#bg6)"/>
  
  <!-- 脸部轮廓 -->
  <ellipse cx="75" cy="87" rx="36" ry="41" fill="#fdbcb4"/>
  
  <!-- 头发 - 成熟发型 -->
  <path d="M39,65 Q75,18 111,65 Q108,32 75,22 Q42,32 39,65" fill="#424242"/>
  <path d="M48,65 Q58,55 68,65" fill="#424242"/>
  <path d="M82,65 Q92,55 102,65" fill="#424242"/>
  
  <!-- 眼睛 - 深邃成熟 -->
  <ellipse cx="64" cy="77" rx="5" ry="4" fill="#2c3e50"/>
  <ellipse cx="86" cy="77" rx="5" ry="4" fill="#2c3e50"/>
  <circle cx="65" cy="76" r="1.5" fill="white"/>
  <circle cx="87" cy="76" r="1.5" fill="white"/>
  
  <!-- 眉毛 - 浓眉 -->
  <path d="M57,70 Q64,68 71,70" fill="none" stroke="#424242" stroke-width="3" stroke-linecap="round"/>
  <path d="M79,70 Q86,68 93,70" fill="none" stroke="#424242" stroke-width="3" stroke-linecap="round"/>
  
  <!-- 嘴巴 - 淡淡微笑 -->
  <path d="M68,97 Q75,100 82,97" fill="none" stroke="#d32f2f" stroke-width="2" stroke-linecap="round"/>
  
  <!-- 西装领带装饰 -->
  <path d="M70,110 L75,120 L80,110 Z" fill="#1976d2"/>
  <rect x="73" y="110" width="4" height="15" fill="#0d47a1"/>
  
  <!-- 公文包装饰 -->
  <rect x="110" y="120" width="20" height="12" fill="#795548" rx="2"/>
  <rect x="115" y="122" width="10" height="2" fill="#5d4037"/>
  <circle cx="120" cy="126" r="1" fill="#5d4037"/>
</svg>
